<svg width="340" height="214" viewBox="0 0 340 214" fill="none" xmlns="http://www.w3.org/2000/svg">
<path fill-rule="evenodd" clip-rule="evenodd" d="M104.37 191.599L111.854 212.182L98.974 212.599L104.37 191.599ZM200.99 201.583C201.828 205.323 199.75 209.276 194.344 209.479C188.938 209.688 152.583 208.026 152.583 208.026C151.13 208.859 150.714 211.354 150.714 211.354L138.042 211.979L111.859 212.188L103.344 188.703L103.76 193.693L98.9792 212.615L80.0677 212.406C80.0677 212.406 80.7344 211.958 81.776 211.208C80.4948 211.474 79.0365 211.563 77.3646 211.37C70.3021 210.536 50.7708 193.281 46.4062 184.76C46.4062 184.76 46.8229 175.609 52.0156 171.87C57.2135 168.13 65.1042 169.375 65.1042 169.375L79.4427 182.682L101.885 151.286C101.885 151.286 97.9375 150.042 98.5573 143.391C99.1771 136.74 99.599 134.453 99.599 134.453C99.599 134.453 90.3542 133.208 87.2396 132.792C85.6146 132.573 83.7552 132.188 82.401 131.292C83.2188 132.396 84.5885 133.12 86.9271 133.484C86.9271 133.484 91.5 143.323 82.0781 145.677C72.6615 148.031 63.5156 141.245 58.5313 133.76C58.5313 133.76 60.9323 133.578 63.25 131.13C61.6354 132.156 59.3646 132.781 56.1771 132.651L59.224 116.016L66.9792 121.005C66.9792 121.005 67.0938 121.615 67.1146 122.563C67.9948 118.63 68.224 114.911 68.224 114.911C68.224 114.911 60.3333 111.172 61.4323 107.984C62.5417 104.797 64.3438 103.682 67.1823 104.313C70.0156 104.938 68.224 101.188 68.224 101.188L64.7604 93.9844C64.7604 93.9844 63.099 90.2448 67.5313 89.1354C71.9635 88.026 74.4531 87.6094 77.5104 85.9479C80.5521 84.2865 83.6042 79.7135 86.0938 82.7604C86.3906 83.125 86.7396 83.6094 87.1354 84.1979C86.6302 83.2552 86.4427 82.6094 85.9896 81.3438C85.0521 78.7448 83.4948 75.3177 77.0521 75.8281C70.6146 76.349 63.651 79.5677 63.651 79.5677C63.651 79.5677 65.5208 70.4219 71.5417 67.5104C77.5677 64.5938 84.4271 65.2865 84.4271 65.2865C99.3854 67.5104 95.5052 45.0573 95.5052 45.0573C93.5677 43.1198 89.9635 37.0156 92.4583 34.7969C94.9531 32.5781 99.1094 35.349 99.1094 35.349C106.307 33.6875 120.714 20.6562 120.714 20.6562C120.714 20.6562 124.594 27.3073 125.427 38.3958C126.26 49.4792 109.911 52.25 109.911 52.25C109.911 52.25 107.417 58.6302 111.297 62.2344C115.177 65.8385 123.76 61.401 123.76 61.401C123.76 61.401 134.911 58.9688 142.599 68.5365C150.286 78.1042 154.443 87.25 154.443 87.25C154.443 87.25 150.333 88.1667 146.828 92.2396C151.422 88.1979 154.443 87.25 154.443 87.25L157.146 91.1979L156.729 64.1719C156.729 64.1719 156.729 56.8906 159.432 56.8906C162.135 56.8906 160.885 63.3385 162.344 65.4167C163.802 67.4948 163.792 67.4948 163.792 67.4948C163.792 67.4948 174.807 58.7604 178.135 57.3073C181.464 55.8594 183.542 54.8125 184.573 56.474C185.609 58.1354 178.344 63.5469 178.344 63.5469C178.344 63.5469 191.016 62.7083 191.432 65.4167C191.849 68.1198 190.391 68.1198 190.807 69.9896C191.224 71.8594 189.563 73.3177 188.521 74.5625C187.479 75.8073 187.068 77.0573 182.708 77.8958C178.344 78.7292 171.901 80.3906 171.484 84.7552C171.068 89.1198 174.604 114.901 173.979 119.469C173.354 124.036 172.109 129.245 167.12 130.281C162.135 131.323 156.734 131.943 141.979 106.99L138.448 102.833C138.448 102.833 130.76 114.063 132.219 122.583C133.672 131.104 140.526 152.734 140.526 152.734L151.958 189.328C151.958 189.328 150.297 193.693 151.745 195.354C152.833 196.599 154.042 198.073 154.75 199.87C154.323 198.161 153.615 196.807 153.615 196.807C153.615 196.807 187.276 195.76 193.719 195.974C200.156 196.172 200.156 197.833 200.99 201.583ZM127.214 122.24C127.161 121.927 127.042 121.677 126.813 121.542C126.984 121.745 127.12 121.974 127.214 122.24ZM123.281 131.932C123.281 131.932 123.266 132.021 123.255 132.172C123.464 131.76 123.776 131.307 124.094 130.729C123.833 131.115 123.568 131.516 123.281 131.932ZM125.813 137.12C126.714 138.141 127.391 138.99 128.266 140.448C128.292 140.495 128.318 140.536 128.344 140.583C128.078 139.661 127.839 138.891 126.708 137.953C126.333 137.656 126.063 137.385 125.813 137.12ZM123.604 134.234C123.797 134.693 124.089 135.182 124.526 135.682C124.891 136.089 125.214 136.448 125.51 136.781C124.833 135.948 124.536 135.24 123.604 134.234ZM116.01 93.2604C122.896 92.0781 125.854 87.6875 126.818 82.5365C125.719 87.3646 122.682 91.5729 116.01 93.2604ZM88.6146 86.5104C90.6875 89.9375 93.2031 94.6719 94.7969 98.3229C93.8073 94.9323 92.2813 91.6458 90.4583 89.1042C89.6875 88.0469 89.0938 87.2031 88.6146 86.5104ZM95.8542 108.542C95.9271 108 95.974 107.432 95.9896 106.849C95.4167 109.083 94.2083 111.469 92.3073 113.318C94.1094 112.125 95.5729 110.552 95.8542 108.542ZM106.656 139.62C106.656 139.62 107.073 132.031 105.615 129.953C104.161 127.875 101.875 125.172 100.417 127.146C102.286 127.146 104.573 128.188 105.615 132.552C106.656 136.927 106.448 140.25 106.656 139.62ZM122.031 123.828C119.88 125.49 117.594 127.641 116.323 129.021C114.719 130.755 111.193 134.635 108.87 137.193C112.458 133.448 119.396 126.464 122.031 123.828ZM120.161 166.443C120.161 166.443 130.969 150.641 131.594 146.068C131.594 147.318 120.161 166.443 120.161 166.443ZM131.568 145.818C131.495 145.193 131.271 144.792 130.974 144.464C131.271 144.969 131.495 145.432 131.568 145.818ZM297.406 153.969C302.599 158.964 305.297 165.406 305.297 165.406C301.141 163.12 292.417 168.526 292.417 168.526C292 165.615 286.182 160.422 286.182 160.422C286.182 160.422 239.016 159.589 236.104 159.589C233.193 159.589 232.578 163.745 232.578 163.745C232.578 163.745 234.495 164.094 235.615 165.76L235.271 164.682L266.958 164.37C266.958 164.37 273.089 164.578 273.609 168.526C274.13 172.474 271.635 174.344 266.125 174.656C260.615 174.969 235.167 174.76 235.167 174.76L235.396 173.568L232.568 175.385C232.151 176.63 235.688 179.547 235.688 179.547L230.906 188.693C230.906 188.693 229.667 185.365 227.578 181C225.505 176.63 226.13 163.328 226.13 163.328L220.521 164.161C220.521 164.161 194.344 169.979 186.651 167.901C178.958 165.823 174.188 161.458 175.016 152.724C175.849 143.995 184.156 127.359 184.156 127.359C184.156 127.359 186.651 123.828 184.99 119.875C183.333 115.922 180.005 113.219 181.87 110.307C183.74 107.396 182.286 106.568 184.99 104.49C187.693 102.411 188.318 101.995 188.521 100.333C188.729 98.6719 187.896 94.099 189.766 91.8073C191.635 89.5208 194.964 88.4792 194.755 91.599C194.542 94.724 192.052 98.4635 193.917 100.542C195.786 102.62 200.151 106.151 201.401 105.74C202.646 105.323 202.234 99.5052 202.646 97.8438C203.052 96.1823 205.349 95.5573 207.01 99.9219C208.667 104.286 207.844 107.818 205.766 115.724C203.688 123.62 201.401 129.234 201.401 136.099C201.401 142.958 201.401 142.958 201.401 142.958L215.323 140.047C215.323 140.047 213.948 154.38 218.901 162.115C215.646 155.87 215.323 140.047 215.323 140.047C226.547 133.604 236.932 137.969 236.932 137.969C236.505 141.901 235.438 146.021 238.552 149.443C237.276 147.151 236.911 144.531 236.724 142.75C236.307 138.802 238.385 137.969 238.385 137.969C240.88 139.839 243.161 139.214 245.656 136.927C248.151 134.635 242.745 124.453 242.745 124.453C236.516 122.583 234.021 119.672 232.568 116.141C231.115 112.609 233.193 106.781 233.193 106.781L232.359 103.25L239.635 100.339C241.505 95.974 249.401 90.1563 249.401 90.1563L261.042 108.453C261.042 108.453 269.141 109.698 268.729 114.063C268.313 118.427 260.839 117.802 260.839 117.802L257.51 118.635C257.51 118.635 256.677 120.714 256.469 126.74C256.26 132.766 258.964 138.385 263.12 139.422C267.271 140.464 271.01 141.083 271.01 141.083C271.01 141.083 275.583 140.458 282.646 143.37C289.714 146.281 292.208 148.979 297.406 153.969ZM236.245 167.781C236.276 168.25 236.271 168.75 236.229 169.25L236.411 168.313L236.245 167.781ZM262.568 149.427C258.693 151.927 253.917 153.865 248.786 154.172C248.682 154.177 248.594 154.177 248.49 154.177C253.594 154.885 258.583 152.411 262.568 149.427ZM323.792 193.609C321.99 188.344 305.297 165.406 305.297 165.406C305.297 165.406 296.219 165.615 293.318 169.078C290.406 172.542 291.38 174.76 289.021 176.422C286.661 178.083 291.375 178.776 291.792 180.724C292.208 182.661 290.266 182.25 289.021 183.495L267.271 182.661C268.208 185.573 270.802 185.885 275.068 186.922C275.427 187.01 275.818 187.078 276.234 187.13C274.031 187.083 272.021 186.885 270.74 186.401C266.313 184.74 264.927 181.964 262.849 180.99C260.771 180.021 254.266 176.557 255.781 180.714C255.781 180.714 256.802 182.057 257.792 183.536C257.13 183.156 256.37 182.911 255.547 182.964C252.323 183.172 250.036 188.479 250.036 188.479L256.474 189.589L259.813 187.547C260.021 188.828 259.365 189.698 256.474 189.589C252.875 189.448 243.453 187.365 239.719 187.094C235.979 186.818 234.313 187.094 236.391 189.865C238.464 192.635 237.078 193.052 240.406 195.823C241.339 196.599 242.458 197.333 243.76 198.026C242.667 197.641 241.609 197.349 240.276 197.208C236.255 196.792 231.271 190.698 231.271 190.698C231.271 190.698 231.688 194.854 231.13 201.089C230.573 207.323 226.703 212.177 226.703 212.177C226.703 212.177 299.563 212.448 297.344 212.031C295.125 211.615 291.391 206.214 290.969 205.932C290.651 205.714 287.807 205.099 282.995 204.135C283.625 204.224 284.24 204.307 284.875 204.411C294.984 206.073 306.203 209.677 314.516 208.016C322.823 206.354 325.594 198.875 323.792 193.609Z" fill="white"/>
<path fill-rule="evenodd" clip-rule="evenodd" d="M162 33.6666C160.474 30.4739 156.875 26.5937 157.844 22.5781C158.813 18.5573 162.833 11.9062 170.594 12.1875C178.349 12.4635 182.505 20.0833 182.229 24.9427C181.953 29.7916 178.208 33.5312 177.656 35.8906C177.109 38.2448 176.964 38.9375 176.964 38.9375C176.964 38.9375 177.24 40.5989 177.38 42.9635C177.526 45.3229 173.646 45.3177 173.646 45.3177C173.646 45.3177 173.094 48.5052 170.875 48.7812C168.656 49.0573 167.828 45.8646 167.828 45.8646C167.828 45.8646 166.719 45.5937 164.917 45.0312C163.115 44.4791 164.917 43.2291 163.953 42.1198C162.984 41.0104 163.953 39.0729 163.953 39.0729C163.953 39.0729 163.521 36.8541 162 33.6666ZM99.5938 134.427L86.9167 133.458C88.1615 139.562 89.6198 144.203 80.0625 146.49C70.5 148.776 58.5209 133.734 58.5209 133.734C58.5209 133.734 47.8542 133.802 37.8854 136.297C27.9063 138.797 27.2865 147.318 27.2865 147.318C26.9531 155.885 30.0052 162.552 33.3854 168.302C32.8125 167.521 32.4844 167.068 32.4844 167.068L23.1354 211.974L66.1459 212.599L75.0834 211.354C69.8854 209.901 59.2865 199.922 54.5104 195.344C52.4219 193.349 47.9479 187.693 43.5781 181.964C45.2292 183.687 46.4011 184.745 46.4011 184.745C49.7292 165.823 64.8959 167.906 64.8959 167.906L79.4375 182.667L101.875 151.271C101.875 151.271 100.01 146.698 98.5469 143.375C97.099 140.036 99.5938 134.427 99.5938 134.427ZM215.948 191.391C212.62 190.766 151.958 191.391 151.958 191.391C151.958 191.391 148.63 196.38 155.073 196.38C161.516 196.38 193.932 194.51 196.839 196.589C199.74 198.667 201.62 204.484 200.781 206.776C199.948 209.062 197.453 209.479 194.344 209.479C191.229 209.479 151.536 209.479 151.536 209.479L150.703 211.349L221.974 212.182C221.974 212.182 222.391 200.536 221.766 197.214C221.146 193.885 219.276 192.016 215.948 191.391ZM287.219 178.083C287.219 178.083 294.01 174.479 292.417 168.521C290.823 162.557 288.745 160.062 282.37 159.932C276 159.786 236.104 159.578 236.104 159.578C236.104 159.578 232.37 161.865 232.578 163.734C232.786 165.604 268.38 163.526 271.151 164.911C273.922 166.297 274.891 169.906 273.781 171.708C272.672 173.51 271.286 174.479 266.854 174.62C262.427 174.76 231.26 174.62 231.26 174.62C231.26 174.62 234.026 178.083 240.125 178.359C246.214 178.646 287.219 178.083 287.219 178.083ZM250.339 179.208C250.536 179.021 250.656 178.911 250.656 178.911L237.458 179.432C237.458 179.432 232.266 182.344 232.474 187.432C232.682 192.531 236.521 196.271 239.328 196.479C242.135 196.687 239.745 193.464 238.182 191.172C236.625 188.885 234.234 186.911 237.042 186.495C239.849 186.078 246.188 188.573 246.188 188.573C246.188 188.573 245.458 184.417 247.323 182.339C247.677 181.953 247.995 181.599 248.307 181.271C247.38 183.047 246.292 185.625 246.594 187.536C247.115 190.766 250.854 189.094 250.854 189.094C250.854 189.094 251.474 182.792 255.531 182.964C258.026 183.068 254.906 179.12 254.906 179.12L250.339 179.208ZM260.208 178.708L266.021 182.766C266.021 182.766 291.781 183.495 291.583 182.344C291.375 181.208 289.505 179.224 289.505 179.224L260.208 178.708Z" fill="#F7CE4D"/>
<path fill-rule="evenodd" clip-rule="evenodd" d="M86.0833 82.7292C86.0833 82.7292 80.8906 85.776 76.3177 86.8177C71.7448 87.8594 67.5886 86.8177 65.9323 89.5208C64.2708 92.2292 66.1406 98.2552 68.2136 101.167C70.2917 104.078 70.2917 104.698 67.1719 104.286C64.0521 103.87 61.9792 104.703 61.3594 106.99C60.7396 109.281 64.4792 113.646 68.2136 114.891L66.974 120.99C66.974 120.99 53.125 115.172 52.5677 104.635C52.5677 104.635 40.9271 106.026 39.5417 99.0938C38.1563 92.1667 39.5417 88.2865 42.8698 86.3438C46.1979 84.3958 52.5677 83.2969 57.0052 86.0677C57.0052 86.0677 63.9271 78.026 73.0729 76.6406C82.2083 75.25 84.1511 76.9115 86.0833 82.7292ZM121.688 8.85937C114.49 4.42188 105.479 5.39062 95.9271 7.89062C86.3698 10.3854 82.9063 19.9479 82.0781 25.349C81.2552 30.75 84.4323 42.5365 84.0156 48.4948C83.599 54.4583 76.125 65.8229 76.125 65.8229C76.125 65.8229 89.1458 65.6823 92.8854 63.3281C96.6198 60.974 95.5104 45.0313 95.5104 45.0313C93.0156 42.1198 90.9375 36.7188 92.4636 34.776C93.9948 32.8385 99.1146 35.3281 99.1146 35.3281C108.677 32.6979 120.724 20.6354 120.724 20.6354C120.724 20.6354 124.182 26.4531 124.875 32.6979C125.568 38.9375 125.427 42.2604 122.38 46.9688C119.339 51.6771 109.917 52.2344 109.917 52.2344C109.917 52.2344 108.948 50.7083 109.5 58.474C110.052 66.2344 119.063 62.7708 123.766 61.3854C128.479 60 134.438 61.6615 134.438 61.6615C134.438 61.6615 128.896 50.7083 128.479 44.6146C128.063 38.5208 133.604 30.0677 134.438 24.2396C135.26 18.4219 128.891 13.2917 121.688 8.85937ZM330.021 158.401C330.021 158.401 339.307 152.443 337.224 146.208C335.141 139.974 329.328 138.589 322.958 135.813C316.583 133.042 304.672 128.193 302.318 121.401C299.964 114.604 298.297 106.151 297.198 100.75C296.094 95.349 294.979 91.7448 289.161 89.9375C283.349 88.1354 275.865 93.4063 275.865 93.4063C275.865 93.4063 281.406 99.4688 281.771 106.969C280.667 99.8698 274.896 90.4323 267.005 86.6094C258.422 82.4531 247.609 85.5 241.792 88.2708C235.979 91.0417 234.729 101.578 234.729 101.578C234.729 101.578 239.026 100.464 239.641 100.333C242.479 93.5365 249.411 90.1458 249.411 90.1458L261.047 108.443C261.047 108.443 268.807 108.234 268.74 114.052C268.672 119.875 258.969 117.792 258.969 117.792L255.927 120.984L256.474 126.734C256.474 126.734 263.401 126.25 270.74 124.307C273.729 123.516 276.172 121.99 278.016 119.979C277.177 121.146 276.557 121.536 276.557 121.536C276.557 121.536 278.911 140.104 282.094 142.328C285.281 144.547 292.766 148.979 301.901 160.203C311.047 171.432 317.693 182.802 317.693 182.802C317.693 182.802 322.406 185.297 327.672 181.557C332.932 177.818 335.979 170.469 334.594 165.755C333.208 161.042 330.021 158.401 330.021 158.401Z" fill="black"/>
<mask id="mask0_17_62" style="mask-type:luminance" maskUnits="userSpaceOnUse" x="0" y="3" width="340" height="211">
<path d="M0 3.97394H339.198V213.583H0V3.97394Z" fill="white"/>
</mask>
<g mask="url(#mask0_17_62)">
<path d="M331.802 158.984C332.552 158.594 333.443 158.052 334.318 157.276C336.271 155.562 338.526 152.422 338.161 147.146C337.693 140.276 333.031 138.474 325.312 135.495C321.521 134.026 316.792 132.208 311.328 129.297C302.453 124.573 300.771 114.734 299.271 106.052C298.089 99.1458 297.062 93.1823 292.75 90.5729C284.328 85.4792 277.318 90.224 275.542 91.625C267.219 82.5469 256.958 80.724 244.26 86.0521C234.156 90.2812 234.042 99.5104 234.109 101.187C233.781 101.292 233.464 101.391 233.187 101.484C232.51 101.708 232.005 102.177 231.734 102.828C231.214 104.094 231.755 105.76 232.115 106.604C231.469 108.333 229.562 114.391 232.292 119.276C234.021 122.375 237.229 124.349 241.828 125.156C244.115 131.286 245.01 137.193 243.698 137.729C242.302 138.302 241.51 137.958 239.927 137.276C238.333 136.583 236.156 135.635 232.516 135.531C226.344 135.318 207.411 139.839 202.062 141.151C202.255 136.464 202.625 131.01 203.312 127.323C203.917 124.109 205.021 121.229 206.078 118.443C207.604 114.427 209.047 110.641 209.047 106.151C209.047 100.339 206.755 96.2292 204.484 95.1615C203.615 94.75 202.755 94.8177 202.141 95.3385C201.187 96.1302 201.318 97.7708 201.505 100.026C201.594 101.151 201.786 103.458 201.448 104.01C201.432 104.01 201.411 104.005 201.38 104.005C198.396 103.406 194.385 100.057 194.229 98.0208C194.172 97.276 194.661 95.9948 195.089 94.8698C195.812 92.9635 196.5 91.1667 195.646 89.8594C195.198 89.1719 194.437 88.7917 193.38 88.7344C191.828 88.6458 190.391 89.3281 189.245 90.6979C187.339 92.9844 186.568 96.8229 187.24 100.427C185.385 101.484 184.604 103.661 184.505 103.958C184.312 104.057 184.12 104.167 183.943 104.297C182.026 105.703 182.036 108.422 182.052 108.729C182.057 108.927 182.12 109.109 182.214 109.271C182.052 109.354 181.948 109.406 181.922 109.422C181.833 109.474 181.755 109.531 181.677 109.609C179.833 111.453 180.318 114.786 183.083 119.245C184.38 121.339 184.745 123.76 184.089 125.901C183.927 126.422 183.719 126.911 183.474 127.354C180.703 132.26 173.042 148.286 174.167 157.271C175.276 166.172 178.87 169.125 188.828 169.125C189.057 169.125 189.297 169.125 189.542 169.115C199.031 168.99 220.203 165.458 225.115 164.615C224.214 170.26 224.349 176.974 227.458 183.448C234.297 197.661 226.328 210.906 226.245 211.036C226.187 211.141 226.141 211.245 226.12 211.354H223.24V199.229C223.24 194.161 219.12 190.042 214.052 190.042H153.089C151.615 182.375 140.276 147.625 136.797 139.062C133.484 130.911 131.49 115.375 137.401 106.349C137.87 105.646 138.271 104.906 138.62 104.167C139.964 106.521 142.714 111.224 146.005 116.026C152.349 125.281 157.578 130.453 161.536 131.396C162.802 131.703 163.99 131.854 165.099 131.854C167.427 131.854 169.391 131.182 170.974 129.849C173.87 127.396 175.177 122.844 174.771 116.682C174.604 114.255 174.198 111.099 173.766 107.76C172.562 98.4844 170.922 85.7812 174.052 82.3542C175.99 80.2396 179.505 79.4792 182.599 78.8073C186.094 78.0573 189.687 77.2812 189.844 74.3229C190.599 73.9896 191.62 73.349 192.104 72.2083C192.521 71.2187 192.443 70.1146 191.88 68.9219C192.302 68.1406 192.87 66.7552 192.458 65.4896C192.26 64.8646 191.74 64.0312 190.422 63.5885C188.505 62.9479 183.854 62.875 180.495 62.9115C181.729 61.9792 183.115 60.8385 184.203 59.7083C185.719 58.1198 186.161 56.4479 185.38 55.2083C184.661 54.0833 183.13 53.7187 181.453 54.276C178.865 55.1406 167.281 62.5937 163.594 66.1354C162.974 64.9219 162.974 63.3385 162.974 61.7865C162.974 59.8281 162.984 57.974 161.703 56.8333C160.37 55.651 159.193 55.8958 158.604 56.1458C156.786 56.9323 155.755 59.7812 155.609 64.4115C155.505 67.7083 155.651 77.5521 155.828 86.9062C149.49 74.2135 143.177 66.1823 136.609 62.4479C136.594 62.4271 136.589 62.4062 136.573 62.3906C132.771 58.5104 130.406 53.3073 129.568 46.9479C128.875 41.7448 130.833 37.6875 133.094 32.9844L133.469 32.2135C134.583 29.8802 135.146 27.9375 135.203 26.0937C135.599 15.2917 125.286 7.3802 115.385 5.42187C107.724 3.91145 96.7552 4.47395 88.9427 10.6146C78.8281 18.5729 80.7083 30.8698 82.0781 39.849C82.3906 41.8906 82.6875 43.8177 82.8021 45.4583C83.3958 53.8229 74.8594 65.1302 74.776 65.2448C74.7031 65.349 74.651 65.4583 74.6041 65.5729C69.1458 67.3385 64.2708 71.1562 62.9271 79.8698C61.1666 81.0833 59.2239 82.7135 57.4635 84.8437C55.6458 84.1562 48.5156 81.7917 43.3646 84.5885C40.6979 86.0365 39.0208 88.599 38.375 92.1979C37.5573 96.724 38.3281 100.203 40.6614 102.531C43.2187 105.083 47.0833 105.62 49.8541 105.62C50.7187 105.62 51.4687 105.568 52.0469 105.51C52.7864 110.432 55.375 113.99 58.1666 116.474L55.1198 132.167C55.0364 132.172 54.9635 132.177 54.875 132.177C43.5989 133.036 24.7291 134.474 26.0521 151.974C26.3698 156.234 28.3229 161.266 31.2031 166.531C31.1823 166.589 31.1614 166.651 31.151 166.708L22.3958 211.339H1.1406C0.520813 211.339 0.020813 211.839 0.020813 212.458C0.020813 213.078 0.520813 213.573 1.1406 213.573H324.99C325.609 213.573 326.104 213.078 326.104 212.458C326.104 211.839 325.609 211.339 324.99 211.339H298.917C298.839 211.281 298.766 211.219 298.677 211.177C297.062 210.37 295.349 208.948 294.052 207.75C298.505 208.651 303.839 209.453 308.771 209.453C312.281 209.453 315.578 209.052 318.208 207.99C320.953 206.88 322.859 204.875 323.865 202.026C325.578 197.188 324.141 191.026 322.568 188.203C322.167 187.474 321.276 186.021 320.016 184.068C320.635 184.177 321.26 184.24 321.885 184.24C323.641 184.24 325.427 183.813 327.135 182.964C331.068 181.005 334.073 177.042 335.37 172.078C337.146 165.323 333.901 160.979 331.802 158.984ZM245.13 88.1146C257.943 82.7448 267.661 85.0156 275.708 95.2604C280.844 101.792 282.073 110.312 278.755 116.469C275.375 122.734 267.771 125.734 257.323 124.974C257.245 123.62 257.214 122.302 257.229 121.115L259.187 118.844C261.25 119.323 265.516 119.807 268.089 117.958C269.344 117.062 270.026 115.724 270.073 114.083C270.109 112.604 269.625 111.328 268.625 110.302C266.641 108.26 263.125 107.828 261.687 107.74L250.365 89.6719C250.036 89.151 249.349 88.9948 248.828 89.3125C248.49 89.5208 240.734 94.349 238.411 99.9271C237.922 100.062 237.156 100.286 236.323 100.526C236.339 98.2969 237.057 91.4948 245.13 88.1146ZM267.281 138.766C265.307 138.625 263.609 138.495 262.271 138.229C259.516 137.677 258.083 132.479 257.521 127.224C258.552 127.292 259.552 127.339 260.505 127.339C267.995 127.339 272.906 125.302 276.125 122.859C276.766 126.937 278.349 135.911 280.609 140.979C275.698 139.385 270.979 139.042 267.281 138.766ZM244.557 139.792C246.661 138.927 247.078 135.932 245.828 130.635C245 127.135 243.745 123.88 243.693 123.74C243.552 123.365 243.208 123.099 242.812 123.036C238.594 122.422 235.708 120.786 234.26 118.187C233.135 116.187 232.995 113.859 233.193 111.849C233.297 112.005 233.401 112.161 233.521 112.312C234.057 112.995 234.745 113.583 235.542 113.99C236.328 114.38 237.193 114.656 238.057 114.687C238.49 114.745 238.906 114.672 239.328 114.656C239.74 114.589 240.141 114.5 240.536 114.396C240.802 114.323 241.021 114.094 241.047 113.802C241.089 113.422 240.812 113.078 240.432 113.042L240.312 113.026C239.953 112.99 239.609 113.01 239.271 112.974C238.932 112.917 238.599 112.922 238.286 112.823C237.646 112.714 237.068 112.469 236.521 112.177C235.979 111.88 235.495 111.484 235.057 111.016C234.63 110.562 234.208 109.984 233.896 109.479L233.828 109.37C233.781 109.302 233.729 109.24 233.672 109.182C234 107.885 234.354 107.031 234.365 107.005C234.49 106.708 234.484 106.359 234.333 106.068C233.937 105.276 233.625 104.099 233.802 103.677C233.818 103.641 233.828 103.63 233.901 103.604C235.755 102.984 239.521 101.932 239.557 101.927C239.911 101.828 240.193 101.562 240.318 101.219C241.714 97.2031 246.937 93.2917 249.083 91.8229L260.115 109.422C260.318 109.75 260.677 109.943 261.062 109.943C262.208 109.943 265.521 110.292 267.031 111.854C267.609 112.443 267.87 113.151 267.844 114.026C267.818 114.979 267.49 115.651 266.802 116.141C264.891 117.505 260.87 117.062 259.135 116.521C258.708 116.385 258.25 116.521 257.958 116.854L255.276 119.964C255.104 120.156 255.01 120.411 255 120.661C254.958 122.531 254.766 139.01 261.828 140.417C263.302 140.719 265.068 140.844 267.109 140.995C267.87 141.047 268.651 141.104 269.464 141.177C267.057 144.464 259.307 153.552 247.573 152.891C243.693 152.672 240.906 151.401 239.297 149.099C236.964 145.755 237.578 141 238.01 138.891C238.37 139.031 238.714 139.182 239.031 139.318C240.714 140.047 242.286 140.724 244.557 139.792ZM195.536 109.057C194.417 106.948 191.937 105.047 188.76 103.953C188.203 103.76 187.677 103.641 187.182 103.573C187.516 103.042 187.984 102.5 188.573 102.245C189.13 102 189.755 102.036 190.484 102.359C193.01 103.484 195.365 106.078 195.63 108.021C195.677 108.406 195.646 108.75 195.536 109.057ZM190.969 92.1146C191.656 91.2969 192.422 90.901 193.271 90.9531C193.667 90.974 193.776 91.0625 193.776 91.0625C194 91.4427 193.354 93.151 193.005 94.0677C192.469 95.474 191.906 96.9375 192.005 98.1875C192.104 99.4219 192.839 100.698 193.891 101.865C193.078 101.234 192.214 100.698 191.385 100.333C190.724 100.036 190.052 99.8854 189.417 99.8698C188.917 96.9583 189.51 93.8594 190.969 92.1146ZM185.276 106.078C185.865 105.646 186.792 105.646 188.031 106.068C191.156 107.141 193.578 109.198 193.911 111.073C193.984 111.484 193.948 111.88 193.807 112.25C193.135 110.88 191.922 109.646 190.406 108.943C188.156 107.906 185.906 108.104 184.286 108.521C184.312 107.917 184.505 106.641 185.276 106.078ZM189.505 166.865C179.297 167.005 177.266 164.062 176.375 156.974C175.411 149.208 182.042 134.391 185.417 128.432C185.745 127.849 186.021 127.208 186.229 126.542C187.078 123.781 186.62 120.693 184.984 118.047C182.995 114.839 182.328 112.333 183.161 111.276C183.839 110.948 186.74 109.698 189.479 110.964C191.307 111.802 192.339 113.698 192.125 114.875C192.057 115.245 191.87 115.677 190.984 115.755C189.583 115.865 189.234 115.359 188.661 114.516C188.177 113.807 187.521 112.839 186.141 112.656C185.526 112.573 184.964 113.005 184.88 113.615C184.797 114.224 185.229 114.792 185.839 114.875C186.198 114.917 186.385 115.151 186.807 115.776C187.464 116.745 188.464 118.198 191.156 117.979C192.854 117.844 194.036 116.833 194.312 115.271C194.323 115.245 194.323 115.219 194.323 115.193C195.458 114.208 196.083 113.01 196.161 111.729C196.203 111.698 196.25 111.687 196.292 111.656C197.516 110.651 198.042 109.286 197.833 107.714C197.635 106.24 196.771 104.745 195.599 103.453C197.328 104.823 199.354 105.859 200.937 106.172C201.901 106.365 202.542 106.026 202.896 105.703C204.125 104.609 203.932 102.281 203.734 99.8229C203.667 98.9896 203.568 97.7969 203.63 97.1979C204.62 97.6927 206.812 100.599 206.812 106.135C206.812 110.219 205.443 113.818 203.995 117.63C202.896 120.516 201.766 123.484 201.12 126.891C199.635 134.745 199.615 149.76 199.615 150.396C199.615 151.01 200.115 151.51 200.729 151.51C201.349 151.51 201.849 151.01 201.849 150.396C201.849 150.328 201.849 147.385 201.974 143.458C203.839 143.005 208.885 141.792 214.453 140.589C213.807 144.318 213.01 153.536 218.333 163.437C209.896 164.797 196.37 166.776 189.505 166.865ZM229.469 182.464C222.62 168.214 231.599 152.031 231.698 151.875C232.005 151.339 231.818 150.656 231.271 150.359C230.734 150.052 230.057 150.24 229.755 150.776C229.547 151.141 226.979 155.766 225.557 162.255C225.021 162.344 223.24 162.656 220.677 163.068C214.766 152.63 216.307 142.625 216.839 140.094C223.068 138.802 229.464 137.672 232.448 137.75C233.812 137.797 234.922 137.969 235.875 138.198C235.359 140.51 234.536 146.161 237.458 150.365C239.479 153.26 242.833 154.854 247.443 155.12C247.906 155.141 248.37 155.156 248.823 155.156C262.609 155.156 270.734 143.406 272.005 141.427C278.203 142.161 285.432 143.964 291.729 150.266C295.25 153.792 299.391 158.87 303.437 164.219C299.052 163.984 295.224 165.974 293.151 167.333C292.198 162.641 288.036 159.094 283.073 159.094H236.792C233.917 159.094 231.578 161.432 231.578 164.312C231.578 164.927 232.078 165.427 232.693 165.427H234.26C234.781 166.547 235.5 168.49 235.266 169.75C235.042 170.948 234.542 172.224 234.161 173.073H232.406C231.786 173.073 231.286 173.568 231.286 174.187C231.286 176.729 233.016 178.859 235.359 179.495C233.068 181.125 231.469 183.667 231.094 186.594C230.682 185.234 230.141 183.859 229.469 182.464ZM289.432 181.693H266.292C266.229 181.693 266.172 181.698 266.109 181.703C265.115 181.026 264.021 180.385 262.896 179.828H287.599C288.844 179.828 289.911 180.594 290.354 181.693H289.432ZM269.521 184.62C269.318 184.396 269.104 184.161 268.865 183.932H287.687C287.464 184.5 287.24 185.172 287.078 185.865C276.995 186.318 270.49 185.719 269.521 184.62ZM251.615 188.208C251.604 188.125 251.599 188.047 251.599 187.953C251.599 185.729 253.406 183.917 255.635 183.917H256.422C256.745 184.229 257.078 184.552 257.422 184.87C258.078 185.484 259.031 186.375 259.328 186.833C258.771 187.411 256.068 188.38 251.615 188.208ZM254.609 181.781C251.635 182.271 249.365 184.849 249.365 187.953C249.365 187.979 249.375 188.005 249.375 188.031C248.719 187.953 248.099 187.859 247.495 187.74C247.214 181.651 251.005 179.953 251.187 179.88C251.229 179.865 251.266 179.844 251.302 179.823H254.214C254.182 179.938 254.167 180.057 254.151 180.161C254.115 180.708 254.297 181.245 254.609 181.781ZM236.547 185.438C235.76 185.729 235.234 186.297 235.062 187.026C234.703 188.505 235.932 190.25 236.641 191.109C236.651 192.875 237.786 194.427 239.062 195.63C235.708 194.651 233.255 191.563 233.255 187.896C233.255 183.458 236.865 179.833 241.307 179.833H247.698C246.437 181.266 245.219 183.599 245.25 187.224C244.094 186.906 243.057 186.557 242.13 186.245C239.865 185.469 238.073 184.854 236.547 185.438ZM283.078 177.458H236.792C235.385 177.458 234.182 176.562 233.729 175.312H233.812C234.021 175.573 234.333 175.74 234.677 175.74H268.755C272.208 175.74 275.021 172.922 275.021 169.464C275.021 166.01 272.208 163.193 268.755 163.193H234.036C234.474 162.104 235.547 161.328 236.792 161.328H273.094C273.13 161.354 273.161 161.375 273.198 161.391C273.422 161.479 278.604 163.776 276.349 172.797C276.198 173.391 276.562 174 277.161 174.151C277.25 174.172 277.344 174.182 277.437 174.182C277.932 174.182 278.391 173.839 278.516 173.333C280.099 166.99 278.391 163.312 276.641 161.328H283.073C287.51 161.328 291.125 164.943 291.125 169.391C291.125 173.839 287.516 177.458 283.078 177.458ZM236.703 165.427H268.755C270.979 165.427 272.792 167.24 272.792 169.464C272.792 171.693 270.979 173.505 268.755 173.505H236.427C236.812 172.573 237.245 171.359 237.469 170.167C237.76 168.615 237.214 166.745 236.703 165.427ZM221 199.214V211.339H151.948C151.88 210.844 151.911 210.438 152.062 210.208C152.156 210.052 152.307 209.99 152.359 209.979C154.396 210.005 184.286 210.401 190.792 210.401H191.948C197.885 210.422 201.833 210.438 202.062 203.177C202.255 197.135 198.016 195.214 195.745 195.042C195.714 195.042 195.682 195.042 195.651 195.042H153.536C153.193 195.042 152.594 194.995 152.427 194.698C152.151 194.234 152.437 193.135 152.818 192.26H201.198C201.281 192.344 201.365 192.417 201.469 192.479C201.776 192.641 208.839 196.677 205.385 207.245C205.193 207.833 205.51 208.458 206.099 208.651C206.219 208.688 206.328 208.703 206.448 208.703C206.917 208.703 207.359 208.406 207.516 207.938C210.234 199.63 207.115 194.651 204.729 192.255H214.052C217.885 192.255 221 195.375 221 199.214ZM155.031 207.781C157.271 204.479 156.073 199.734 155.193 197.266H195.609C196.214 197.333 200 197.948 199.839 203.099C199.672 208.188 198.052 208.188 191.958 208.167H190.797C185.276 208.167 162.896 207.875 155.031 207.781ZM155.917 92.0937C156.073 99.6979 156.224 105.995 156.24 106.599C156.25 107.208 156.75 107.682 157.354 107.682C157.359 107.682 157.37 107.682 157.385 107.682C158 107.672 158.484 107.156 158.469 106.536C158.464 106.187 157.63 71.1198 157.839 64.4531C157.979 59.9844 158.979 58.3906 159.484 58.1719C159.714 58.0781 160.042 58.3229 160.214 58.4792C160.74 58.9479 160.74 60.3802 160.734 61.7552C160.734 63.8437 160.729 66.2135 162.193 68.0729C162.969 69.0677 166.682 74.2083 163.458 78.349C163.078 78.8333 163.167 79.5417 163.651 79.9115C164.135 80.2917 164.844 80.2031 165.219 79.7187C168.115 76 166.974 71.3542 164.859 67.9948C167.74 64.9531 179.797 57.151 182.156 56.3698C182.927 56.1198 183.396 56.25 183.479 56.3802C183.578 56.5365 183.49 57.1927 182.578 58.1354C180.266 60.5521 176.26 63.1354 176.219 63.1562C175.797 63.4323 175.609 63.9531 175.76 64.4323C175.917 64.9167 176.349 65.2448 176.87 65.2135C179.698 65.0937 187.516 64.9583 189.698 65.6823C190.224 65.8646 190.302 66.0781 190.323 66.151C190.448 66.5312 190.24 67.1719 189.974 67.6927C186.406 67.5521 175.906 68.2812 174.625 68.3802C174.01 68.4271 173.547 68.9635 173.594 69.5729C173.635 70.1615 174.12 70.6094 174.703 70.6094C174.729 70.6094 174.755 70.6094 174.781 70.6094C178.219 70.3594 187.068 69.8125 189.875 69.9219C190.13 70.474 190.182 70.9375 190.031 71.2917C189.786 71.8802 189.01 72.2292 188.589 72.375C183.385 71.6875 175.104 72.8802 174.755 72.9323C174.146 73.0208 173.719 73.5885 173.807 74.1979C173.891 74.7552 174.365 75.151 174.911 75.151C174.964 75.151 175.021 75.151 175.073 75.1354C175.156 75.1198 182.536 74.0625 187.469 74.4896C187.026 75.4115 185.292 75.8906 182.12 76.5729C178.693 77.3125 174.812 78.1562 172.401 80.7917C168.568 84.9792 170.146 97.2031 171.547 107.99C171.969 111.292 172.38 114.411 172.536 116.776C172.891 122.125 171.823 126.135 169.526 128.083C167.776 129.562 165.26 129.932 162.057 129.161C156.714 127.891 148.552 116.24 143.349 107.74C143.37 107.625 143.38 107.516 143.37 107.401C143.37 107.365 142.99 103.625 144.219 99.4896C145.807 94.1406 149.24 90.625 154.411 89.0208C154.844 89.9115 155.276 90.8177 155.714 91.7552C155.755 91.9062 155.828 92.0052 155.917 92.0937ZM85.0156 45.276C84.8854 43.5521 84.5885 41.5781 84.2708 39.4896C82.9062 30.5885 81.2083 19.5 90.3073 12.349C97.5208 6.67187 107.76 6.17708 114.937 7.58854C123.937 9.36978 133.312 16.4167 132.964 25.9844C132.911 27.5052 132.427 29.1667 131.443 31.2135L131.073 31.9896C128.755 36.8021 126.568 41.3437 127.339 47.2083C128.026 52.3854 129.656 56.8542 132.203 60.5573C127.286 59.1771 122.979 60.1927 119.375 61.0521C118.005 61.375 116.703 61.6823 115.526 61.8177C113.609 62.0417 112.266 61.6667 111.401 60.6771C109.823 58.875 110.089 55.2552 110.437 53.3333C117.714 52.224 122.583 49.25 124.911 44.474C129.797 34.4687 121.625 20.3802 121.271 19.7865C121.073 19.4427 120.714 19.2135 120.292 19.2344C119.885 19.2396 119.521 19.4635 119.328 19.8177C116.135 25.6719 101.953 33.2083 98.6823 34.8958C97.4896 33.8802 95.0104 32.099 92.9375 32.75C92.1146 33.0104 91.0521 33.7448 90.6354 35.8021C89.6198 40.8594 93.4323 44.7708 94.6823 45.8958C95.2448 52.0729 94.8281 61.8542 91.3437 63.1406C90.1354 63.5885 88.0677 63.7187 85.6771 63.8646C83.3021 64.0156 80.5781 64.1875 77.8437 64.7135C80.3594 61.0104 85.526 52.4323 85.0156 45.276ZM96.8646 45.25C96.8385 44.9531 96.6875 44.6771 96.4479 44.4896C96.4062 44.4531 91.9166 40.8385 92.8333 36.2656C92.9427 35.7187 93.1666 35.0417 93.6041 34.901C94.5729 34.6042 96.6406 36.0104 97.7396 37.0625C98.0781 37.3906 98.5885 37.4635 99.0052 37.2552C99.3437 37.0833 103.24 35.1458 107.734 32.4062C107.568 32.6875 107.432 33.026 107.38 33.401C107.214 34.4687 107.677 35.4323 108.391 35.5365C109.115 35.6458 109.828 34.8646 109.995 33.7969C110.156 32.7344 109.703 31.7708 108.979 31.6667C108.964 31.6667 108.943 31.6667 108.927 31.6667C113.177 28.9948 117.729 25.6927 120.203 22.5417C122.12 26.3958 126.38 36.3958 122.911 43.5104C120.849 47.7344 116.292 50.3437 109.375 51.2448C108.922 51.3073 108.547 51.6354 108.437 52.0781C108.37 52.3542 106.776 58.7917 109.724 62.1667C111.094 63.7292 113.135 64.3698 115.792 64.0573C117.104 63.9115 118.458 63.5833 119.901 63.2448C120.781 63.0365 121.687 62.8229 122.63 62.6458C123.573 65.0104 128.5 78.1615 124.422 86.1406C122.88 89.151 120.161 91.1042 116.349 91.9427C100.807 95.3646 87.6406 71.8125 84.75 66.2031C85.125 66.1823 85.4896 66.1615 85.8489 66.1354C88.4166 65.9792 90.6354 65.8385 92.1458 65.2812C98.4583 62.9062 97.0469 47.0521 96.8646 45.25ZM82.3125 66.3698C83.1666 68.1094 86.651 74.9427 91.9896 81.4844C98.9791 90.0521 106.26 94.4844 113.26 94.4844C114.453 94.4844 115.63 94.3594 116.797 94.099C121.297 93.1042 124.521 90.7656 126.38 87.1302C130.714 78.6615 126.245 65.8021 124.87 62.2708C132.354 61.4375 141.76 64.125 153.385 87.0365C143.641 90.2448 141.531 99.0885 141.151 104.099C140.594 103.135 140.104 102.255 139.698 101.516C139.677 101.479 139.646 101.443 139.625 101.406C140.557 97.9687 140.37 94.2917 139.021 90.5208C137.526 86.3177 135.151 83.5104 135.047 83.3906C134.646 82.9219 133.943 82.8698 133.474 83.2708C133.005 83.6719 132.953 84.375 133.349 84.8437C133.708 85.2604 142.01 95.2135 135.526 105.109C129.167 114.797 131.219 131.276 134.719 139.88C138.578 149.391 150.25 185.609 150.974 190.911C150.495 191.854 149.526 194.167 150.49 195.823C150.818 196.38 151.479 197.031 152.766 197.214C153.547 199.146 155.661 205.365 151.812 207.818C151.411 207.922 150.729 208.203 150.229 208.917C149.781 209.557 149.609 210.37 149.693 211.339H139.417L121.057 166.031C125.151 160.37 128.344 155.719 129.536 153.464C133.266 146.396 133.589 145.531 130.87 142.875C130.719 142.734 130.562 142.578 130.396 142.406C129.464 141.479 129.328 140.891 129.182 140.203C128.911 139.005 128.547 138 126.531 136.917C125.427 136.328 125.266 135.823 125.047 135.13C124.771 134.25 124.432 133.453 123.417 132.828C125.755 130.073 130.24 124.036 127.719 120.901C127.339 120.422 126.781 120.161 126.135 120.161H126.125C122.292 120.161 112.271 131.62 107.469 137.38C107.229 135.802 106.901 133.672 106.573 131.589C106.068 128.396 104.745 127.031 103.724 126.453C102.667 125.849 101.406 125.786 100.187 126.281C98.3489 127.016 98.4739 129.052 98.5937 131.016C98.6302 131.63 98.6666 132.26 98.6666 132.917C96.8125 132.609 94.7239 132.495 92.5156 132.359C89.2135 132.167 85.7864 131.958 83.1614 131.12C82.9635 131.062 82.6875 130.927 82.4531 130.443C81.2916 128.047 82.9896 121.312 84.4635 117.161C90.5989 116.693 94.5521 114.443 96.2344 110.484C100.083 101.422 90.2031 86.5417 87.9114 83.6615C87.5521 79.8437 86.0104 77.1615 83.2864 75.724C78.3125 73.0937 70.7864 75.3594 65.4844 78.2604C67.8385 68.8646 75.4739 67 82.3125 66.3698ZM113.068 211.339L104.557 188.089C109.578 181.547 114.979 174.391 119.521 168.161L137.021 211.339H113.068ZM83.5781 211.339C85.9583 210.38 88.3437 208.615 90.6875 205.755C93.1823 202.714 97.7135 196.964 102.828 190.323L97.7291 211.333H83.5781V211.339ZM64.2864 169.734L78.2396 183.807C78.4687 184.047 78.7864 184.161 79.125 184.135C79.4531 184.104 79.7552 183.932 79.9427 183.656L102.802 150.833C103.141 150.333 103.031 149.656 102.547 149.292C99.0677 146.729 98.6094 141.161 100.172 137.26C101.089 134.964 100.953 132.703 100.844 130.885C100.776 129.818 100.693 128.49 101.036 128.359C101.63 128.12 102.167 128.135 102.635 128.396C103.479 128.87 104.104 130.13 104.385 131.943C105.021 135.958 105.651 140.187 105.651 140.198C105.719 140.635 106.031 140.995 106.464 141.104C106.891 141.214 107.344 141.073 107.625 140.734C114.87 131.823 123.906 122.448 126.068 122.396C127.182 124.156 123.594 129.417 120.76 132.495C120.5 132.776 120.401 133.177 120.505 133.552C120.609 133.922 120.891 134.214 121.266 134.323C122.589 134.714 122.703 135.062 122.943 135.812C122.964 135.891 122.995 135.964 123.016 136.036C122.562 136.359 117.828 139.776 115.323 143.109C114.953 143.599 115.057 144.302 115.547 144.672C115.75 144.823 115.984 144.896 116.219 144.896C116.557 144.896 116.896 144.74 117.109 144.448C119.224 141.625 123.328 138.573 124.177 137.953C124.51 138.271 124.927 138.594 125.495 138.901C126.766 139.578 126.844 139.927 127.016 140.693C127.052 140.859 127.089 141.031 127.141 141.214C126.385 141.589 124.333 142.802 122.172 145.677C121.802 146.172 121.906 146.87 122.396 147.245C122.599 147.391 122.839 147.469 123.068 147.469C123.411 147.469 123.745 147.312 123.958 147.021C125.891 144.443 127.677 143.443 128.146 143.214C128.339 143.464 128.552 143.719 128.828 143.995C129 144.172 129.172 144.328 129.323 144.479C130.927 146.052 130.927 146.052 127.573 152.422C123.583 159.99 96.6406 194.979 88.9583 204.328C81.7656 213.078 74.5521 210.661 65.9323 204.354C61.9375 201.432 54.526 194.141 47.3177 185.51C47.3229 185.469 47.3333 185.422 47.3333 185.37C47.3333 185.286 47.5989 176.906 52.8646 172.406C55.6614 170.01 59.4375 169.109 64.0625 169.724C64.1458 169.74 64.2187 169.74 64.2864 169.734ZM104.281 193.833L110.687 211.339H100.031L104.281 193.833ZM86.5156 141.432C85.5625 143.359 83.4739 144.656 80.3021 145.281C71.3125 147.042 62.7291 137.589 59.8229 133.969C59.9271 133.953 60.0416 133.943 60.1354 133.932C68.6041 132.755 69.125 115.583 69.1458 114.849C69.1614 114.38 68.8698 113.948 68.4323 113.786C68.3646 113.755 61.6875 111.031 62.3541 107.187C62.5625 105.974 63.1458 105.578 64.6406 105.578C65.1406 105.578 65.7448 105.62 66.4687 105.698C68.2448 105.875 70.0833 106.068 71.0625 104.677C71.3489 104.26 71.3281 103.708 71 103.318C69.2708 101.255 64.9635 95.1719 65.7291 91.7865C66.1146 90.0729 67.0104 89.9115 69.7708 89.6406C71.9896 89.4271 74.7448 89.1562 77.875 87.4375C79.6354 86.4687 80.9271 85.6354 81.9687 84.9635C84.625 83.25 84.625 83.25 86.0208 84.849C88.5729 87.8021 97.4323 102.021 94.2083 109.615C92.8229 112.875 89.2656 114.687 83.6302 114.984C83.1875 115.01 82.8021 115.292 82.6458 115.708C82.2083 116.87 78.4219 127.203 80.4687 131.427C80.9166 132.344 81.6198 132.979 82.5104 133.26C83.6302 133.62 84.8489 133.865 86.125 134.047C86.3854 134.635 88 138.422 86.5156 141.432ZM42.2083 100.927C40.4271 99.1458 39.8698 96.3385 40.5469 92.5781C41.0677 89.6771 42.3646 87.6458 44.4062 86.5365C48.2448 84.4427 53.8177 85.9531 56.0416 86.6979C53.3489 90.6771 51.4062 96.0729 51.8125 103.26C49.7448 103.469 44.8958 103.609 42.2083 100.927ZM54.1041 104.141C52.901 90.349 60.9323 83.4948 65.8333 80.6354C71.0312 77.6042 78.125 75.5156 82.2604 77.6979C83.6927 78.4583 84.6875 79.7396 85.2448 81.5C83.8594 81.0729 82.6094 81.8802 80.7448 83.0729C79.7396 83.7187 78.4844 84.5312 76.7916 85.4635C74.0677 86.9583 71.5573 87.2031 69.5469 87.401C66.8541 87.6615 64.3073 87.9115 63.5416 91.2812C62.6094 95.3646 66.4687 101.083 68.3489 103.573C67.8229 103.589 67.1562 103.51 66.6771 103.458C64.4844 103.24 60.8229 102.865 60.1354 106.792C59.3125 111.552 64.8125 114.583 66.8698 115.536C66.8177 116.505 66.7135 117.687 66.5416 118.979C63.8906 117.927 54.9479 113.682 54.1041 104.141ZM60.1146 118.031C62.7344 119.901 65.2031 120.891 66.1927 121.25C65.2916 126.026 63.4114 131.224 59.8229 131.724C59.1198 131.823 58.3125 131.906 57.4271 131.984L60.1146 118.031ZM55.0521 134.406C55.8125 134.349 56.526 134.297 57.2031 134.234C57.9687 135.271 60.4479 138.484 64.026 141.536C68.8021 145.62 73.6146 147.729 78.0885 147.729C78.9896 147.729 79.8698 147.646 80.7396 147.474C84.6406 146.708 87.2604 145 88.5364 142.406C89.9844 139.443 89.2552 136.141 88.6406 134.333C89.8906 134.443 91.1614 134.521 92.4114 134.594C94.625 134.729 96.7187 134.849 98.4948 135.151C98.4062 135.583 98.2812 136.01 98.1198 136.432C96.3906 140.755 96.6875 146.891 100.401 150.396L78.8906 181.281L53.8021 155.974C53.3698 155.536 52.6614 155.536 52.2239 155.969C51.7812 156.401 51.7812 157.104 52.2135 157.547L61.9114 167.328C57.7187 167.214 54.1875 168.339 51.4114 170.724C47.151 174.375 45.7656 179.979 45.3281 183.078C36.7344 172.417 28.9323 160.229 28.2916 151.802C27.1302 136.536 43.9271 135.255 55.0521 134.406ZM32.8958 169.458C42.2031 184.958 58.3646 201.589 64.6146 206.161C67.5312 208.302 70.6302 210.255 73.8229 211.349H24.6823L32.8958 169.458ZM290.286 207.13C290.396 207.26 292.396 209.464 294.833 211.339H228.63C229.911 208.943 233.167 201.828 232.38 192.984C234.156 196.083 237.49 198.182 241.307 198.182H242.573C246.396 201.609 256.604 203.281 265.286 203.406C274.958 203.547 279.797 204.146 286.885 206.052C287.797 206.297 288.901 206.578 290.146 206.88C290.182 206.969 290.219 207.057 290.286 207.13ZM321.766 201.281C320.984 203.495 319.5 205.063 317.375 205.917C309.047 209.276 292.37 205.219 287.464 203.896C280.167 201.932 275.203 201.323 265.323 201.177C257.687 201.068 250.589 199.823 246.552 198.026C247.99 198.208 249.536 198.339 250.943 198.339C252.13 198.339 253.214 198.245 254.042 198.005C254.63 197.833 254.974 197.208 254.802 196.62C254.63 196.026 254.01 195.688 253.417 195.859C250.865 196.604 244.182 195.49 241.823 194.99H241.818C240.786 194.229 239.672 193.214 239.167 192.172C242.156 192.823 248.526 194.104 252.453 194.104C252.609 194.104 252.766 194.104 252.917 194.094C253.536 194.078 254.021 193.568 254.005 192.948C253.99 192.328 253.484 191.828 252.859 191.859C248.62 191.969 240.208 190.125 238.396 189.714C237.714 188.885 237.156 187.88 237.214 187.589C237.214 187.589 237.245 187.563 237.333 187.531C238.115 187.234 239.573 187.734 241.422 188.359C243.469 189.052 246.021 189.922 249.24 190.281C254.198 190.833 258.792 190.167 260.667 188.625C261.38 188.036 261.583 187.417 261.62 187.01C261.724 185.839 260.562 184.75 258.953 183.25C258.13 182.479 256.641 181.078 256.417 180.448C257.99 179.609 264.932 182.75 267.854 186.094C270.948 189.641 291.609 187.927 297.875 187.313C298.484 187.255 298.937 186.714 298.88 186.094C298.818 185.474 298.266 185.026 297.656 185.089C294.74 185.37 291.99 185.589 289.443 185.734C289.667 185.021 289.937 184.37 290.135 183.932H291.703C292.318 183.932 292.818 183.432 292.818 182.818C292.818 180.432 291.208 178.422 289.021 177.802C291.505 176.036 293.177 173.198 293.354 169.964C294.708 168.927 299.823 165.427 305.266 166.745C305.286 166.755 305.318 166.755 305.339 166.755C312.734 176.766 319.375 187 320.641 189.281C321.953 191.672 323.234 197.135 321.766 201.281ZM333.219 171.516C332.083 175.849 329.51 179.292 326.151 180.958C323.672 182.198 321 182.333 318.641 181.354C318.495 181.297 318.349 181.266 318.198 181.271C312.141 172.094 301.333 156.724 293.318 148.703C290.323 145.708 287.115 143.661 283.906 142.234C283.896 142.229 283.896 142.214 283.891 142.208C281.208 139.214 278.88 126.401 278.104 121.089C279.297 119.849 280.135 118.599 280.714 117.526C284.443 110.604 283.13 101.099 277.448 93.875C277.302 93.6771 277.146 93.4948 276.99 93.3073C278.479 92.1094 284.339 88.099 291.583 92.4896C295.021 94.5677 295.969 100.062 297.062 106.432C298.557 115.167 300.427 126.031 310.26 131.271C315.849 134.25 320.641 136.099 324.49 137.578C331.854 140.427 335.547 141.849 335.922 147.302C336.479 155.547 329.63 157.5 329.339 157.583C328.906 157.693 328.589 158.057 328.521 158.5C328.453 158.937 328.661 159.38 329.042 159.615C329.318 159.771 335.302 163.568 333.219 171.516Z" fill="black"/>
</g>
<path d="M79.9948 98.8802C79.4948 97.901 78.5573 97.3802 77.8958 97.7239C77.2344 98.0573 77.1042 99.125 77.6042 100.099C78.1042 101.078 79.0417 101.599 79.7031 101.255C80.3646 100.911 80.4948 99.8541 79.9948 98.8802Z" fill="black"/>
<path d="M86.7344 93.1041C86.0729 93.4427 85.9427 94.5052 86.4427 95.4844C86.9427 96.4583 87.8802 96.9791 88.5417 96.6354C89.2032 96.3021 89.3334 95.2344 88.8334 94.2604C88.3282 93.2864 87.3907 92.7708 86.7344 93.1041Z" fill="black"/>
<path d="M84.2031 101.875C84.5573 101.948 84.9375 101.984 85.3333 101.964C85.7292 101.917 86.1458 101.839 86.5625 101.615C86.9635 101.396 87.3802 101.047 87.6042 100.578C87.8281 100.094 87.8698 99.625 87.6719 99.0886C87.6354 98.9844 87.5208 98.9219 87.4115 98.9531L86.3229 99.25C86.2396 99.2761 86.1771 99.4011 86.125 99.4531C86.0625 99.5208 86.0104 99.5781 85.9583 99.625C85.8594 99.7136 85.7708 99.8125 85.6146 99.9011C85.474 100.005 85.25 100.078 85.0208 100.161C84.776 100.234 84.5052 100.302 84.224 100.391L84.151 100.411C83.8958 100.49 83.6875 100.698 83.6302 100.979C83.5312 101.38 83.7917 101.786 84.2031 101.875Z" fill="black"/>
<path d="M86.3906 107.411C86.0989 107.5 85.7812 107.49 85.4687 107.552C85.1458 107.589 84.8281 107.568 84.4896 107.604L84.3802 107.62C84.1198 107.646 83.8906 107.833 83.8229 108.104C83.7344 108.453 83.9427 108.807 84.2917 108.901C84.6614 108.995 85.0417 109.083 85.4323 109.146C85.8229 109.167 86.2187 109.234 86.6198 109.177C87.4323 109.151 88.2448 108.891 88.9896 108.521C89.7344 108.141 90.3802 107.589 90.8854 106.938C91.401 106.286 91.7448 105.599 91.9583 104.745C92.0365 104.438 91.9062 104.099 91.625 103.922C91.276 103.708 90.8125 103.813 90.5989 104.167L90.5312 104.271C90.2396 104.745 89.8385 105.286 89.4375 105.708C89.026 106.151 88.5625 106.521 88.0573 106.807C87.5469 107.068 87 107.307 86.3906 107.411Z" fill="black"/>
<path d="M83.9427 92.9635L84.0156 92.8906C84.3281 92.5625 84.5417 92.2552 84.7969 92.0052C85.0261 91.7344 85.2813 91.5312 85.5417 91.3229C85.8073 91.125 86.1146 90.9531 86.474 90.7969C86.8125 90.6458 87.2344 90.5208 87.6094 90.3854L87.7136 90.3489C87.8334 90.3021 87.9323 90.2239 87.9896 90.0937C88.0938 89.8594 87.9896 89.5729 87.7552 89.4687C87.2188 89.2239 86.6979 89.1562 86.1354 89.1875C85.5886 89.2187 85.0156 89.3906 84.5052 89.6875C83.9948 89.9791 83.5521 90.4114 83.2656 90.9062C82.9636 91.4062 82.8229 91.9583 82.8229 92.5C82.8229 92.6719 82.8906 92.8437 83.0156 92.9739C83.2761 93.2239 83.6875 93.2239 83.9427 92.9635Z" fill="black"/>
<path d="M78.4531 95.0625C78.5729 95.0208 78.6719 94.9375 78.7292 94.8125C78.8333 94.5729 78.7292 94.2917 78.4896 94.1875C77.9531 93.9427 77.4323 93.875 76.875 93.901C76.3229 93.9323 75.75 94.1042 75.2448 94.401C74.7292 94.6927 74.2917 95.125 74 95.625C73.7031 96.125 73.5625 96.6719 73.5625 97.2187C73.5625 97.3906 73.6302 97.5625 73.7604 97.6875C74.026 97.9427 74.4323 97.9323 74.6771 97.6719L74.7552 97.599C75.0677 97.2708 75.2813 96.9635 75.5365 96.7135C75.7656 96.4427 76.0208 96.2396 76.2813 96.0312C76.5469 95.8333 76.8542 95.6614 77.2083 95.5052C77.5521 95.3542 77.9688 95.2292 78.349 95.0937L78.4531 95.0625Z" fill="black"/>
<path d="M247.63 105.057C248.161 104.021 248.026 102.885 247.318 102.531C246.62 102.172 245.62 102.724 245.083 103.76C244.547 104.797 244.688 105.927 245.396 106.286C246.104 106.641 247.104 106.089 247.63 105.057Z" fill="black"/>
<path d="M246.729 99.7083L246.844 99.7448C247.25 99.8854 247.693 100.021 248.057 100.177C248.427 100.339 248.755 100.516 249.036 100.734C249.323 100.958 249.589 101.167 249.828 101.458C250.094 101.719 250.328 102.052 250.661 102.396L250.734 102.479C250.865 102.604 251.031 102.687 251.229 102.687C251.604 102.687 251.922 102.38 251.922 101.995C251.922 101.422 251.771 100.833 251.448 100.302C251.146 99.7708 250.677 99.3125 250.13 99C249.599 98.6771 248.984 98.5 248.396 98.4687C247.802 98.4375 247.25 98.5156 246.677 98.7656C246.557 98.8177 246.453 98.9219 246.411 99.0573C246.328 99.3281 246.469 99.6094 246.729 99.7083Z" fill="black"/>
<path d="M118.698 33.0469C117.974 32.9323 117.26 33.7187 117.094 34.7812C116.932 35.8489 117.385 36.8073 118.109 36.9114C118.828 37.026 119.547 36.2396 119.708 35.1771C119.875 34.1094 119.417 33.1562 118.698 33.0469Z" fill="black"/>
<path d="M112.49 39.3333C112.828 39.526 113.208 39.6979 113.672 39.7604C114.12 39.8177 114.656 39.7708 115.099 39.526C115.552 39.2656 115.859 38.9218 116.01 38.3802C116.036 38.276 115.979 38.1614 115.875 38.125L114.833 37.7395C114.75 37.7083 114.63 37.7708 114.557 37.7864C114.469 37.7968 114.391 37.8229 114.328 37.8229C114.193 37.8385 114.073 37.8645 113.896 37.8437C113.724 37.8437 113.5 37.776 113.271 37.7083C113.031 37.6354 112.776 37.5312 112.495 37.4323L112.427 37.4114C112.182 37.3229 111.891 37.375 111.682 37.5625C111.38 37.8385 111.354 38.3073 111.63 38.6093C111.875 38.8802 112.161 39.125 112.49 39.3333Z" fill="black"/>
<path d="M108.443 45.1198C108.75 45.3594 109.026 45.6458 109.38 45.8281C110.047 46.276 110.849 46.5365 111.651 46.6667C112.464 46.7917 113.307 46.7188 114.073 46.4948C114.865 46.2604 115.531 45.9115 116.193 45.3542C116.432 45.151 116.521 44.8073 116.396 44.5052C116.24 44.1302 115.807 43.9531 115.438 44.1094L115.323 44.151C114.823 44.3646 114.193 44.5729 113.625 44.6823C113.047 44.7917 112.464 44.8333 111.891 44.7656C111.328 44.6875 110.75 44.5625 110.208 44.3021C109.927 44.2083 109.672 44.0208 109.391 43.8854C109.115 43.7292 108.87 43.526 108.578 43.3646L108.479 43.3125C108.26 43.1875 107.969 43.1979 107.75 43.3802C107.474 43.6042 107.438 44.0104 107.672 44.2865C107.917 44.5625 108.167 44.8542 108.443 45.1198Z" fill="black"/>
<path d="M116.547 31.3333L116.641 31.3177C117.083 31.2344 117.432 31.1093 117.771 31.0573C118.109 30.9687 118.427 30.9531 118.755 30.9375C119.083 30.9323 119.432 30.9739 119.797 31.0521C120.161 31.125 120.568 31.2656 120.943 31.375L121.047 31.4062C121.167 31.4427 121.297 31.4271 121.417 31.3646C121.635 31.2343 121.714 30.9427 121.583 30.7291C121.297 30.2291 120.922 29.875 120.453 29.5729C119.995 29.276 119.443 29.0885 118.859 29.0364C118.286 28.9791 117.677 29.0677 117.161 29.3073C116.635 29.5312 116.208 29.8958 115.896 30.3281C115.802 30.4635 115.755 30.6406 115.786 30.8125C115.859 31.1614 116.193 31.3906 116.547 31.3333Z" fill="black"/>
<path d="M161.406 34.9843C161.74 35.4843 163.193 38.0468 163.49 38.9375C163.474 38.9687 163.479 39.0052 163.474 39.0416C162.937 39.6614 162.5 40.5156 162.578 41.4427C162.625 41.9323 162.818 42.3854 163.146 42.7552C162.922 43.3854 162.854 44.1406 163.156 44.802C163.437 45.427 164.01 45.8437 164.755 45.9791C165.437 46.0989 166.161 46.1875 166.891 46.2552C166.891 46.2604 166.885 46.2708 166.885 46.276C166.885 47.9375 168.229 49.2864 169.891 49.2864H171.167C172.828 49.2864 174.172 47.9375 174.172 46.276V46.1354C174.172 46.1041 174.156 46.0781 174.156 46.0468C174.354 46.0156 174.547 45.9843 174.74 45.9583C174.865 45.9323 177.896 45.3541 178.401 43.6093C178.521 43.1927 178.542 42.5989 178.068 41.9479C178.24 41.375 178.401 40.4583 178.083 39.6458C177.953 39.3281 177.76 39.0573 177.526 38.8281C177.63 36.7916 178.76 35.0729 179.974 33.2604C181.172 31.4583 182.417 29.5989 182.714 27.2968C182.979 25.1927 182.802 22.9375 182.193 20.7604C180.76 15.6875 177.078 12.1666 172.557 11.5625C168.5 11.026 164.271 12.2812 161.26 14.927C158.469 17.3854 156.937 20.7812 156.943 24.5C156.958 28.2395 159.156 31.7291 161.406 34.9843ZM168.573 28.0573C169.146 27.8593 169.745 27.5833 170.354 27.2031C170.964 27.5781 171.557 27.8593 172.135 28.0573C171.391 31.2864 171.849 36.8698 171.984 38.276C170.911 38.2812 169.781 38.2968 168.714 38.3073C168.849 36.9427 169.328 31.302 168.573 28.0573ZM176.161 40.026C176.333 40.1093 176.391 40.2031 176.427 40.2968C176.573 40.651 176.437 41.2343 176.318 41.5885H164.516C164.406 41.4791 164.375 41.3698 164.37 41.276C164.339 40.9479 164.568 40.4948 164.911 40.1302C166.995 40.1093 174.25 40.0416 176.161 40.026ZM172.401 46.276C172.401 46.9531 171.849 47.5 171.182 47.5H169.906C169.26 47.5 168.74 46.9895 168.693 46.3593C169.036 46.3645 169.38 46.3802 169.729 46.3802C170.63 46.3802 171.531 46.3437 172.401 46.2604V46.276ZM174.417 44.1979C171.62 44.7187 167.948 44.7187 165.068 44.2135C164.828 44.1666 164.792 44.0885 164.776 44.0573C164.719 43.9218 164.734 43.6614 164.823 43.3802H176.453C176.078 43.6718 175.281 44.0416 174.417 44.1979ZM162.448 16.276C164.672 14.3177 167.667 13.2291 170.698 13.2291C171.24 13.2291 171.792 13.2656 172.333 13.3333C176.182 13.8489 179.229 16.8073 180.479 21.2448C181.021 23.1875 181.187 25.2031 180.948 27.0625C180.708 28.9479 179.63 30.5573 178.5 32.2656C177.292 34.0729 176.042 35.9427 175.781 38.2395C175.281 38.2448 174.583 38.2552 173.786 38.2604C173.495 35.3802 173.323 30.7135 173.875 28.4062C175.745 28.5364 177.234 27.8073 178.005 26.9948C178.917 26.0364 179.057 24.8437 178.359 23.9635C177.672 23.0937 176.943 22.9427 176.453 22.9739C175.135 23.0468 174.031 24.3906 172.786 26.3854C172.187 26.1927 171.536 25.8802 170.87 25.4114C170.776 25.3489 170.682 25.3125 170.578 25.2812C170.562 25.276 170.547 25.2708 170.531 25.2708C170.474 25.2604 170.422 25.2708 170.359 25.2708C170.302 25.2708 170.24 25.2604 170.182 25.2708C170.167 25.2708 170.161 25.276 170.146 25.2812C170.042 25.3073 169.943 25.3489 169.854 25.4114C169.182 25.8802 168.536 26.1927 167.932 26.3854C166.693 24.3906 165.589 23.0468 164.271 22.9739C163.771 22.9427 163.052 23.0937 162.365 23.9635C161.672 24.8489 161.807 26.0364 162.714 26.9948C163.49 27.8177 164.979 28.5364 166.849 28.4062C167.396 30.7291 167.229 35.4427 166.937 38.3229C166.229 38.3281 165.604 38.3333 165.156 38.3333C164.63 36.5937 162.917 33.9895 162.896 33.9635C160.802 30.9375 158.76 27.7187 158.745 24.4948C158.729 21.3073 160.042 18.3854 162.448 16.276ZM174.771 26.6041C175.818 25.0364 176.333 24.7604 176.547 24.7552H176.557C176.698 24.7552 176.891 24.9948 176.948 25.0677C177.135 25.2968 176.75 25.7239 176.703 25.7656C176.333 26.1614 175.656 26.5104 174.771 26.6041ZM165.948 26.6041C165.062 26.5104 164.38 26.1614 164.005 25.7656C163.958 25.7239 163.573 25.2968 163.755 25.0677C163.818 24.9948 164.01 24.7552 164.151 24.7552H164.161C164.38 24.7708 164.896 25.0468 165.948 26.6041Z" fill="black"/>
<path d="M150.109 28.5C149.625 28.4218 149.161 28.75 149.083 29.2395C149 29.7239 149.328 30.1875 149.818 30.2656L153.99 30.9583C154.042 30.9687 154.083 30.9739 154.135 30.9739C154.568 30.9739 154.943 30.6614 155.016 30.2291C155.099 29.7448 154.771 29.2864 154.281 29.2031L150.109 28.5Z" fill="black"/>
<path d="M157.37 10.8437C157.531 10.9635 157.719 11.026 157.906 11.026C158.172 11.026 158.443 10.9062 158.62 10.6666C158.917 10.2708 158.844 9.7135 158.448 9.41663L155.073 6.85934C154.682 6.56246 154.125 6.63538 153.823 7.03121C153.526 7.42704 153.599 7.98433 153.995 8.28121L157.37 10.8437Z" fill="black"/>
<path d="M186.214 28.7344C185.729 28.8125 185.396 29.276 185.474 29.7604C185.552 30.1979 185.932 30.5052 186.354 30.5052C186.406 30.5052 186.453 30.5 186.505 30.4896L190.672 29.7969C191.156 29.7135 191.49 29.2552 191.412 28.7708C191.328 28.2865 190.875 27.9583 190.38 28.0313L186.214 28.7344Z" fill="black"/>
<path d="M147.234 17.5L152.797 19.5833C152.901 19.6198 153.005 19.6458 153.109 19.6458C153.474 19.6458 153.807 19.4219 153.943 19.0625C154.115 18.599 153.885 18.0885 153.422 17.9167L147.859 15.8281C147.401 15.6563 146.885 15.8906 146.714 16.349C146.542 16.8073 146.776 17.3177 147.234 17.5Z" fill="black"/>
<path d="M181.844 10.75C182.026 10.75 182.224 10.6875 182.38 10.5677L185.75 8.01561C186.146 7.71874 186.219 7.15624 185.922 6.76561C185.625 6.36978 185.068 6.29166 184.672 6.59374L181.297 9.14582C180.906 9.44791 180.828 10.0052 181.125 10.401C181.307 10.6198 181.573 10.75 181.844 10.75Z" fill="black"/>
<path d="M185.797 18.7812C185.932 19.1354 186.271 19.3594 186.63 19.3594C186.734 19.3594 186.839 19.3437 186.943 19.3021L192.505 17.2135C192.964 17.0417 193.198 16.5313 193.026 16.0677C192.854 15.6042 192.339 15.375 191.87 15.5469L186.307 17.6302C185.854 17.8021 185.625 18.3177 185.797 18.7812Z" fill="black"/>
<mask id="mask1_17_62" style="mask-type:luminance" maskUnits="userSpaceOnUse" x="169" y="0" width="4" height="10">
<path d="M169.865 0H172.531V9.30729H169.865V0Z" fill="white"/>
</mask>
<g mask="url(#mask1_17_62)">
<path d="M170.786 8.28125C171.276 8.28125 171.677 7.88021 171.677 7.39063V0.890625C171.677 0.401041 171.276 0 170.786 0C170.292 0 169.891 0.401041 169.891 0.890625V7.39063C169.891 7.88021 170.292 8.28125 170.786 8.28125Z" fill="black"/>
</g>
</svg>
