<svg width="109" height="112" viewBox="0 0 92 95" fill="none" xmlns="http://www.w3.org/2000/svg">
<mask id="mask0_17_63" style="mask-type:luminance" maskUnits="userSpaceOnUse" x="0" y="43" width="14" height="5">
<path d="M0 43.2188H13.8438V47.2188H0V43.2188Z" fill="white"/>
</mask>
<g mask="url(#mask0_17_63)">
<path d="M11.8125 46.625H1.14583C0.557292 46.625 0.078125 46.1459 0.078125 45.5521C0.078125 44.9584 0.557292 44.4792 1.14583 44.4792H11.8125C12.4063 44.4792 12.8854 44.9584 12.8854 45.5521C12.8854 46.1459 12.4063 46.625 11.8125 46.625Z" fill="#F7CE4D"/>
</g>
<mask id="mask1_17_63" style="mask-type:luminance" maskUnits="userSpaceOnUse" x="77" y="44" width="15" height="4">
<path d="M77.8438 44.5521H91.8229V47.2188H77.8438V44.5521Z" fill="white"/>
</mask>
<g mask="url(#mask1_17_63)">
<path d="M90.3958 46.8855H79.7239C79.1302 46.8855 78.651 46.4011 78.651 45.8125C78.651 45.224 79.1302 44.7396 79.7239 44.7396H90.3958C90.9844 44.7396 91.4635 45.224 91.4635 45.8125C91.4635 46.4011 90.9844 46.8855 90.3958 46.8855Z" fill="#F7CE4D"/>
</g>
<path d="M75.7187 30.7604C75.3385 30.7604 74.9687 30.5572 74.776 30.1979C74.4948 29.6718 74.6927 29.026 75.2135 28.7447L84.6041 23.6822C85.125 23.401 85.7708 23.5937 86.0521 24.1145C86.3333 24.6354 86.1406 25.2864 85.6198 25.5677L76.2291 30.6302C76.0677 30.7187 75.8906 30.7604 75.7187 30.7604Z" fill="#F7CE4D"/>
<path d="M61.9323 16.8959C61.7604 16.8959 61.5885 16.8542 61.4323 16.7657C60.9062 16.4896 60.7135 15.8386 60.9896 15.3178L66.0312 5.91671C66.3125 5.39067 66.9635 5.19796 67.4844 5.47921C68.0052 5.75525 68.1979 6.40629 67.9219 6.92713L62.8802 16.3282C62.6875 16.6875 62.3177 16.8959 61.9323 16.8959Z" fill="#F7CE4D"/>
<path d="M14.1458 29.7813C13.9739 29.7813 13.8021 29.7396 13.6406 29.6563L4.24998 24.5938C3.72914 24.3125 3.53643 23.6615 3.81248 23.1407C4.09373 22.6198 4.74477 22.4271 5.2656 22.7084L14.6562 27.7657C15.1771 28.0469 15.3698 28.698 15.0937 29.2188C14.8958 29.5782 14.526 29.7813 14.1458 29.7813Z" fill="#F7CE4D"/>
<path d="M27.9323 15.9219C27.5521 15.9219 27.1823 15.7136 26.9896 15.3542L21.9479 5.95315C21.6666 5.43231 21.8646 4.78127 22.3854 4.50002C22.9062 4.21877 23.5573 4.41669 23.8385 4.93752L28.8802 14.3438C29.1562 14.8646 28.9635 15.5104 28.4427 15.7917C28.2812 15.8802 28.1094 15.9219 27.9323 15.9219Z" fill="#F7CE4D"/>
<mask id="mask2_17_63" style="mask-type:luminance" maskUnits="userSpaceOnUse" x="44" y="0" width="4" height="14">
<path d="M44.5104 0H47.177V13.8854H44.5104V0Z" fill="white"/>
</mask>
<g mask="url(#mask2_17_63)">
<path d="M46 12.7969H45.9948C45.4062 12.7969 44.9271 12.3177 44.9271 11.7239L44.9583 1.05727C44.9583 0.46873 45.4375 -0.010437 46.026 -0.010437H46.0312C46.625 -0.010437 47.0989 0.473938 47.0989 1.06248L47.0677 11.7291C47.0677 12.3229 46.5885 12.7969 46 12.7969Z" fill="#F7CE4D"/>
</g>
<path d="M53.974 44.1146C53.8802 45.6771 53.3854 46.8178 52.4948 47.5261C52.1458 47.2448 51.8281 46.9375 51.5365 46.6042C50.1198 44.9792 49.651 42.9219 50.1094 40.3282C50.5573 37.7969 51.2188 37.2813 51.375 37.2813H51.3802C52.3073 37.3907 54.1667 40.7657 53.974 44.1146ZM40.651 46.4375C40.4375 46.7136 40.2031 46.9688 39.9479 47.2084C38.7083 46.0886 38.3281 44.4063 38.224 43.2188C37.9375 40 39.2656 37.3698 39.9167 37.2553H39.9219C40.0521 37.2553 40.7969 37.7761 41.4948 40.3646C42.1667 42.849 41.8906 44.8386 40.651 46.4375ZM64.224 50.599C64.1719 50.599 61.151 50.6875 57.901 49.9323C57.7708 49.9011 57.3698 49.8125 57.2188 49.7605C56.2396 49.4948 55.2656 49.1511 54.3594 48.7032C55.3906 47.625 56 46.1146 56.1094 44.2396C56.3333 40.4115 54.3073 35.4688 51.6302 35.1563C50.3802 35.0105 48.7448 35.724 48 39.9532C47.4271 43.1823 48.0781 45.8959 49.9167 48.0105C50.0208 48.1355 50.1302 48.25 50.2396 48.3646C50.0052 48.3907 49.7604 48.4011 49.5052 48.4011L43.4219 48.3855C42.875 48.3855 42.3906 48.3282 41.9479 48.224C42.0833 48.073 42.2188 47.9167 42.3438 47.7553C44 45.6146 44.4115 42.9375 43.5625 39.8021C42.4167 35.5678 40.75 34.9323 39.5417 35.1459C37.1146 35.573 35.7708 39.8438 36.0885 43.4063C36.276 45.5469 37.0052 47.2709 38.1771 48.4896C34.0938 50.7657 28.0729 50.7448 27.9792 50.7448C27.4063 50.7292 26.9063 51.2136 26.901 51.8073C26.8958 52.3959 27.3646 52.8803 27.9583 52.8855C27.974 52.8855 28.0052 52.8855 28.0469 52.8855C28.5677 52.8855 31.0208 52.8542 33.8594 52.2553L41.0521 78.7969C41.1823 79.2761 41.6146 79.5886 42.0885 79.5886C42.1771 79.5886 42.2708 79.5782 42.3646 79.5469C42.9375 79.3959 43.276 78.8073 43.1198 78.2344L35.9375 51.7188C37.3698 51.2761 38.8073 50.6719 40.0625 49.8334C41.0365 50.2865 42.1615 50.5261 43.4167 50.5261L49.5 50.5469C50.5625 50.5469 51.5208 50.3698 52.3542 50.0365C53.4896 50.7292 54.7344 51.2448 55.9896 51.6303L48.8229 78.0782C48.6667 78.6511 49.0052 79.2396 49.5729 79.3959C49.6667 79.4167 49.7604 79.4323 49.8542 79.4323C50.3281 79.4323 50.7604 79.1146 50.8906 78.6407L58.0625 52.1615C61.2917 52.8282 64.0885 52.7448 64.3021 52.7396C64.8958 52.7188 65.3542 52.2188 65.3333 51.6303C65.3125 51.0365 64.8073 50.573 64.224 50.599Z" fill="#F7CE4D"/>
<mask id="mask3_17_63" style="mask-type:luminance" maskUnits="userSpaceOnUse" x="32" y="88" width="28" height="7">
<path d="M32.5104 88.5521H59.177V94.8177H32.5104V88.5521Z" fill="white"/>
</mask>
<g mask="url(#mask3_17_63)">
<path d="M56.5573 89.2761C56.2083 91.1094 55.2916 92.3125 54.5 92.3125H37.0677C36.276 92.3125 35.3541 91.1094 35.0052 89.2761H32.8385C33.2864 92.2917 34.9948 94.4531 37.0677 94.4531H54.5C56.5677 94.4531 58.276 92.2917 58.7239 89.2761H56.5573Z" fill="#F7CE4D"/>
</g>
<path d="M57.6823 88.0729H34.0885C33.3177 88.0729 32.6666 87.5937 32.6666 87.026V84.4375H59.1041V87.026C59.1041 87.5937 58.4531 88.0729 57.6823 88.0729ZM32.6666 79.8802H59.1041V82.2968H32.6666V79.8802ZM18.4062 45.375C18.4062 30.2291 30.7291 17.901 45.8802 17.901C61.0312 17.901 73.3541 30.2291 73.3541 45.375C73.3541 55.177 68.0729 64.302 59.5625 69.2031C59.2291 69.3906 59.026 69.7448 59.026 70.1302V77.7395H32.7343V70.1302C32.7343 69.7448 32.5312 69.3906 32.1979 69.2031C23.6875 64.302 18.4062 55.1718 18.4062 45.375ZM75.5 45.375C75.5 29.0468 62.2135 15.7604 45.8802 15.7604C29.552 15.7604 16.2604 29.0468 16.2604 45.375C16.2604 55.7291 21.7395 65.3906 30.5937 70.7395V78.7135C30.552 78.8333 30.526 78.9531 30.526 79.0781V87.026C30.526 88.7812 32.125 90.2187 34.0885 90.2187H57.6823C59.6458 90.2187 61.2448 88.7812 61.2448 87.026V78.8645C61.2448 78.7239 61.2187 78.5937 61.1666 78.4739V70.7395C70.026 65.3906 75.5 55.7291 75.5 45.375Z" fill="black"/>
</svg>
