<svg width="109" height="112" viewBox="0 0 109 112" fill="none" xmlns="http://www.w3.org/2000/svg">
<mask id="mask0_19_38" style="mask-type:luminance" maskUnits="userSpaceOnUse" x="0" y="52" width="16" height="5">
<path d="M0.203125 52.3333H16V56.3333H0.203125V52.3333Z" fill="white"/>
</mask>
<g mask="url(#mask0_19_38)">
<path d="M14.224 55.3854H1.56771C0.864584 55.3854 0.296875 54.8177 0.296875 54.1146C0.296875 53.4115 0.864584 52.8438 1.56771 52.8438H14.224C14.9271 52.8438 15.4948 53.4115 15.4948 54.1146C15.4948 54.8177 14.9271 55.3854 14.224 55.3854Z" fill="white"/>
</g>
<mask id="mask1_19_38" style="mask-type:luminance" maskUnits="userSpaceOnUse" x="93" y="52" width="16" height="5">
<path d="M93.3334 52.3333H108.865V56.3333H93.3334V52.3333Z" fill="white"/>
</mask>
<g mask="url(#mask1_19_38)">
<path d="M107.443 55.6927H94.7865C94.0833 55.6927 93.5156 55.125 93.5156 54.4218C93.5156 53.7239 94.0833 53.151 94.7865 53.151H107.443C108.146 53.151 108.714 53.7239 108.714 54.4218C108.714 55.125 108.146 55.6927 107.443 55.6927Z" fill="white"/>
</g>
<path d="M90.0365 36.5677C89.5834 36.5677 89.1459 36.3229 88.9167 35.8958C88.5834 35.276 88.8177 34.5104 89.4323 34.1771L100.573 28.1718C101.193 27.8385 101.964 28.0677 102.297 28.6823C102.63 29.3021 102.401 30.0729 101.781 30.4062L90.6406 36.4166C90.4479 36.5156 90.2396 36.5677 90.0365 36.5677Z" fill="white"/>
<path d="M73.6823 20.1146C73.4792 20.1146 73.2709 20.0677 73.0834 19.9635C72.4636 19.6354 72.2292 18.8646 72.5625 18.2448L78.5469 7.09374C78.875 6.47395 79.6459 6.23957 80.2657 6.5729C80.8802 6.90624 81.1146 7.67186 80.7813 8.29165L74.8021 19.4479C74.5729 19.875 74.1354 20.1146 73.6823 20.1146Z" fill="white"/>
<path d="M16.9896 35.4062C16.7865 35.4062 16.5781 35.3594 16.3854 35.2552L5.25 29.25C4.63021 28.9167 4.40104 28.1458 4.72917 27.5312C5.0625 26.9114 5.83334 26.6771 6.45313 27.0104L17.5938 33.0156C18.2135 33.3489 18.4427 34.125 18.1094 34.7396C17.8802 35.1667 17.4427 35.4062 16.9896 35.4062Z" fill="white"/>
<path d="M33.3438 18.9636C32.8959 18.9636 32.4531 18.7188 32.224 18.2917L26.2448 7.13544C25.9115 6.51564 26.1459 5.74481 26.7604 5.41669C27.3802 5.08335 28.1511 5.31252 28.4844 5.93231L34.4688 17.0886C34.7969 17.7084 34.5677 18.474 33.9479 18.8125C33.7552 18.9115 33.5521 18.9636 33.3438 18.9636Z" fill="white"/>
<mask id="mask2_19_38" style="mask-type:luminance" maskUnits="userSpaceOnUse" x="53" y="0" width="5" height="17">
<path d="M53.3334 0.078125H57.3334V16.3333H53.3334V0.078125Z" fill="white"/>
</mask>
<g mask="url(#mask2_19_38)">
<path d="M54.7761 15.2604C54.073 15.2552 53.5001 14.6875 53.5053 13.9844L53.5417 1.32813C53.5417 0.630208 54.1095 0.0625 54.8126 0.0625H54.8178C55.5157 0.0625 56.0834 0.635416 56.0834 1.33854L56.047 13.9896C56.047 14.6927 55.474 15.2604 54.7761 15.2604Z" fill="white"/>
</g>
<path d="M64.2344 52.4114C64.125 54.2604 63.5417 55.6146 62.4844 56.4583C62.0677 56.125 61.6875 55.7604 61.3437 55.3646C59.6615 53.4323 59.1094 50.9948 59.651 47.9167C60.1823 44.9167 60.9635 44.3073 61.151 44.3073C61.1562 44.3073 61.1562 44.3073 61.1615 44.3073C62.2604 44.4323 64.4635 48.4375 64.2344 52.4114ZM48.4323 55.1667C48.1823 55.4948 47.901 55.7969 47.599 56.0781C46.125 54.7552 45.6719 52.7552 45.5521 51.3489C45.2135 47.526 46.7865 44.4062 47.5573 44.2708C47.5625 44.2708 47.5625 44.2708 47.5677 44.2708C47.724 44.2708 48.6042 44.8906 49.4323 47.9583C50.2292 50.9062 49.901 53.2656 48.4323 55.1667ZM76.3958 60.0989C76.3333 60.1042 72.75 60.2083 68.8958 59.3073C68.7396 59.276 68.2656 59.1667 68.0833 59.1094C66.9271 58.7917 65.7708 58.3854 64.6927 57.8542C65.9167 56.5781 66.6458 54.7812 66.7708 52.5573C67.0365 48.0208 64.6354 42.151 61.4583 41.7812C59.974 41.6094 58.0312 42.4583 57.151 47.4739C56.474 51.3073 57.2396 54.5208 59.4271 57.0312C59.5521 57.1771 59.6771 57.3177 59.8125 57.4531C59.5312 57.4792 59.2396 57.4948 58.9323 57.4948L51.7187 57.4739C51.0729 57.4739 50.4948 57.4062 49.974 57.2864C50.1354 57.1042 50.2917 56.9167 50.4375 56.7292C52.4062 54.1875 52.8906 51.0156 51.8854 47.2969C50.526 42.2708 48.5469 41.5156 47.1146 41.7708C44.2344 42.2812 42.6458 47.3437 43.0156 51.5729C43.2396 54.1094 44.1042 56.1562 45.4948 57.5989C40.651 60.3021 33.5104 60.276 33.401 60.276C32.7187 60.2552 32.125 60.8281 32.1198 61.5312C32.1146 62.2344 32.6719 62.8073 33.375 62.8177C33.3958 62.8177 33.4271 62.8177 33.4792 62.8177C34.0937 62.8177 37.0104 62.776 40.375 62.0625L48.9115 93.5521C49.0625 94.1198 49.5781 94.4896 50.1354 94.4896C50.2448 94.4896 50.3542 94.4792 50.4687 94.4479C51.1458 94.2656 51.5469 93.5677 51.3646 92.8906L42.8385 61.4323C44.5417 60.9062 46.2448 60.1875 47.7344 59.1927C48.8906 59.7344 50.224 60.0156 51.7135 60.0156L58.9323 60.0364C60.1927 60.0364 61.3281 59.8281 62.3177 59.4323C63.6615 60.2552 65.1406 60.8698 66.625 61.3229L58.125 92.7031C57.9375 93.3802 58.3385 94.0781 59.0156 94.2604C59.1302 94.2917 59.2396 94.3073 59.349 94.3073C59.9115 94.3073 60.4219 93.9323 60.5781 93.3698L69.0885 61.9531C72.9219 62.75 76.2344 62.6458 76.4896 62.6406C77.1927 62.6146 77.7396 62.026 77.7135 61.3229C77.6875 60.6198 77.0885 60.0677 76.3958 60.0989Z" fill="white"/>
<mask id="mask3_19_38" style="mask-type:luminance" maskUnits="userSpaceOnUse" x="38" y="105" width="33" height="7">
<path d="M38.6666 105.667H70.6666V111.729H38.6666V105.667Z" fill="white"/>
</mask>
<g mask="url(#mask3_19_38)">
<path d="M67.302 105.984C66.8905 108.161 65.7968 109.589 64.8593 109.589H44.1822C43.2395 109.589 42.151 108.161 41.7395 105.984H39.1614C39.6926 109.563 41.7187 112.13 44.1822 112.13H64.8593C67.3176 112.13 69.3437 109.563 69.8749 105.984H67.302Z" fill="white"/>
</g>
<path d="M68.6354 104.557H40.6458C39.7343 104.557 38.9583 103.99 38.9583 103.312V100.245H70.3229V103.312C70.3229 103.99 69.552 104.557 68.6354 104.557ZM38.9583 94.8437H70.3229V97.7031H38.9583V94.8437ZM22.0416 53.9062C22.0416 35.9323 36.6614 21.3125 54.6354 21.3125C72.6093 21.3125 87.2291 35.9323 87.2291 53.9062C87.2291 65.5312 80.9635 76.3594 70.8698 82.1719C70.4739 82.3958 70.2291 82.8177 70.2291 83.2708V92.3021H39.0416V83.2708C39.0416 82.8177 38.802 82.3958 38.4062 82.1719C28.3073 76.3594 22.0416 65.5312 22.0416 53.9062ZM89.7708 53.9062C89.7708 34.5312 74.0104 18.7708 54.6354 18.7708C35.2604 18.7708 19.4948 34.5312 19.4948 53.9062C19.4948 66.1927 25.9948 77.651 36.5 84V93.4583C36.4479 93.5937 36.4166 93.7396 36.4166 93.8906V103.312C36.4166 105.401 38.3177 107.099 40.6458 107.099H68.6354C70.9687 107.099 72.8645 105.401 72.8645 103.312V93.6354C72.8645 93.4687 72.8281 93.3125 72.7708 93.1719V84C83.2812 77.651 89.7708 66.1927 89.7708 53.9062Z" fill="black"/>
</svg>
